<svg width="24" height="25" viewBox="0 0 24 25" fill="none" xmlns="http://www.w3.org/2000/svg">
<path fill-rule="evenodd" clip-rule="evenodd" d="M15.7071 10.7929C16.0976 11.1834 16.0976 11.8166 15.7071 12.2071L12.7071 15.2071C12.3166 15.5976 11.6834 15.5976 11.2929 15.2071L8.29289 12.2071C7.90237 11.8166 7.90237 11.1834 8.29289 10.7929C8.68342 10.4024 9.31658 10.4024 9.70711 10.7929L12 13.0858L14.2929 10.7929C14.6834 10.4024 15.3166 10.4024 15.7071 10.7929Z" fill="#BA6235"/>
<path fill-rule="evenodd" clip-rule="evenodd" d="M21 10.8572L21 14.1428C21 15.2266 21 16.1007 20.9422 16.8086C20.8826 17.5375 20.7568 18.1777 20.455 18.77C19.9757 19.7108 19.2108 20.4757 18.27 20.955C17.6777 21.2568 17.0375 21.3826 16.3086 21.4422C15.6007 21.5 14.7266 21.5 13.6428 21.5L10.3572 21.5C9.27339 21.5 8.39925 21.5 7.69137 21.4422C6.96253 21.3826 6.32234 21.2568 5.73005 20.955C4.78924 20.4757 4.02433 19.7108 3.54497 18.77C3.24318 18.1777 3.11737 17.5375 3.05782 16.8086C2.99998 16.1008 2.99999 15.2266 3 14.1428L3 10.8572C2.99999 9.77339 2.99998 8.89925 3.05782 8.19138C3.11737 7.46253 3.24318 6.82234 3.54497 6.23005C4.02433 5.28924 4.78924 4.52433 5.73005 4.04497C6.32234 3.74318 6.96253 3.61737 7.69137 3.55782C8.39925 3.49998 9.27341 3.49999 10.3572 3.5L13.6428 3.5C14.7266 3.49999 15.6007 3.49998 16.3086 3.55782C17.0375 3.61737 17.6777 3.74318 18.27 4.04497C19.2108 4.52433 19.9757 5.28924 20.455 6.23005C20.7568 6.82234 20.8826 7.46253 20.9422 8.19138C21 8.89926 21 9.77341 21 10.8572ZM18.9488 8.35424C18.8994 7.74907 18.8072 7.40138 18.673 7.13803C18.3854 6.57354 17.9265 6.1146 17.362 5.82698C17.0986 5.69279 16.7509 5.60062 16.1458 5.55118C15.5289 5.50078 14.7366 5.5 13.6 5.5H10.4C9.26339 5.5 8.47108 5.50078 7.85424 5.55118C7.24907 5.60062 6.90138 5.69279 6.63803 5.82698C6.07354 6.1146 5.6146 6.57354 5.32698 7.13803C5.19279 7.40138 5.10062 7.74907 5.05118 8.35424C5.00078 8.97108 5 9.76339 5 10.9L5 14.1C5 15.2366 5.00078 16.0289 5.05118 16.6458C5.10062 17.2509 5.19279 17.5986 5.32698 17.862C5.6146 18.4265 6.07354 18.8854 6.63803 19.173C6.90138 19.3072 7.24907 19.3994 7.85424 19.4488C8.47108 19.4992 9.26339 19.5 10.4 19.5H13.6C14.7366 19.5 15.5289 19.4992 16.1458 19.4488C16.7509 19.3994 17.0986 19.3072 17.362 19.173C17.9265 18.8854 18.3854 18.4265 18.673 17.862C18.8072 17.5986 18.8994 17.2509 18.9488 16.6458C18.9992 16.0289 19 15.2366 19 14.1V10.9C19 9.76339 18.9992 8.97108 18.9488 8.35424Z" fill="#BA6235"/>
</svg>
