<?xml version="1.0" encoding="utf-8"?>
<!-- Generator: Adobe Illustrator 27.9.6, SVG Export Plug-In . SVG Version: 9.03 Build 54986)  -->
<svg version="1.1" id="레이어_1" xmlns="http://www.w3.org/2000/svg" xmlns:xlink="http://www.w3.org/1999/xlink" x="0px"
	 y="0px" viewBox="0 0 66 66" style="enable-background:new 0 0 66 66;" xml:space="preserve">
<style type="text/css">
	.st0{fill-rule:evenodd;clip-rule:evenodd;fill:#EEBCA2;}
	.st1{fill-rule:evenodd;clip-rule:evenodd;fill:#BA6235;}
</style>
<path class="st0" d="M34.4,14.7c-1.1,0-2,0.9-2,2l0,36c0,1.1,0.9,2,2,2c1.1,0,2-0.9,2-2l0-36C36.4,15.5,35.5,14.7,34.4,14.7z"/>
<path class="st1" d="M35.8,15.2c-0.8-0.8-2-0.8-2.8,0l-14,14c-0.8,0.8-0.8,2,0,2.8c0.8,0.8,2,0.8,2.8,0l12.6-12.6L47,32.1
	c0.8,0.8,2,0.8,2.8,0c0.8-0.8,0.8-2,0-2.8L35.8,15.2z"/>
</svg>
